<?xml version="1.0" encoding="UTF-8"?>
<svg id="Layer_1_copy" data-name="Layer 1 copy" xmlns="http://www.w3.org/2000/svg" viewBox="0 0 1286.59 731.01">
  <defs>
    <style>
      .cls-1 {
        fill: #4a4a4a;
      }
    </style>
  </defs>
  <g id="C50jBc">
    <g>
      <path class="cls-1" d="M404.11,184.04c-1.15-1.12,5.99-11.95,7.47-13.56,8.07-8.75,32.74-16.35,44.46-22.62,22.95-12.28,43.64-28.15,61.16-46.86,11-11.74,21.55-19.08,23.24-37.03-18.48-24.89-61.96-24.76-90.34-23.29-102.71,5.31-257.76,79.18-343.28,136.51-29.86,20.02-85.75,61.25-90.02,98.74-1.5,13.18.68,18.12,8.8,28.1,26.29,32.3,75.03,48.6,111.4,67.11,81.52,41.5,154.85,87.26,199.1,170.45,27.59,51.87,19.86,106.28-28.25,141.6-44.3,32.52-125.62,56.83-178.28,35.5-6.93-2.81-23.62-13.39-26.39-20.23-2.1-5.18-1.91-20.98-1.49-27.05,3.42-48.45,52.86-67.92,93.82-76.75,3.97-.15-5.18,8.81-6.31,9.61-4.13,2.95-9.92,4.34-14.14,7.47-12.76,9.46-43.97,41.34-52.2,54.69-5.9,9.58-5.11,9.05,4.99,14.15,42.67,21.58,109.17,7.67,149.71-14.06,19.06-10.22,55.6-36.8,57.25-59.87,5.77-80.91-104.8-154.55-167.11-187.76-39.57-21.09-141.03-61.62-158.91-102.6-7.75-17.77-7.36-61.07.26-78.86,17.99-42.02,69.97-76.22,107.57-100.51C208.48,77.59,379.88-3.51,489.92,4.34c16.9,1.21,29.04,3.64,40.33,16.51,31.02,35.35,39.69,78.27,2.91,113.18-19.26,18.28-34.27,28.46-58.94,38.84-22.74,9.56-45.16,15.54-70.11,11.17Z"/>
      <path class="cls-1" d="M1022.5,515.06c24.8-23.38,40.7-55.07,62.54-81.3,3-3.61,16.33-19.13,19.31-20.49,6.63-3.01,36.54,2.79,40.78,9.2,1.62,2.45,3.31,12.43,3.57,15.77,1.41,18.24-6.53,39.73-2.29,56.91.33,1.33-.87,2.07,1.66,1.71,43.62-30.22,68.17-78.74,100.96-119.08,7.81-3.2,31.68-1.78,35.46,6.51,1.54,3.37-2.26,15.01-3.41,19.3-15.7,58.49-49.46,126-50.63,187.07-.36,18.94,4.01,30.94,10.88,42.67,1.54,2.64,11.94,2.75,6.81,8.02-6.92,7.1-17.03,1.95-23.7-2.49-51.51-34.29-18.09-112.62-7.59-160.19-17.24,14.64-28.21,35.36-49.24,45.7-40.6,19.97-59.82-13.7-57.59-50.8.3-4.98,2.64-10.29,1.7-15.37-30.09,33.69-49.35,79.94-83.54,109.78-2.59,2.26-11.47,9.75-14.09,9.65-2.34-.09-14.23-4.79-16.68-6.19-21.54-12.3-12.86-56.12-7.57-75.95,3.2-12.01,10.43-26.4,11.89-38.15,3.15-25.35,3.04-36.04,13.38-60.55,1.24-2.93,7.95-18.28,9.08-19.35,4.06-3.81,14.44-2.08,19.13.18s11.93,11.39,13,16.56c1.82,8.8-5.41,36.06-8.27,45.81-7.36,25.15-19.73,49.35-25.56,75.08Z"/>
      <path class="cls-1" d="M649.64,559.43c-3.11,7.15-3.79,20.88,3.5,25.57,4.08,2.62,19.6-1.87,24.67-3.64,23.31-8.15,42.66-26.66,54.34-48.05-10.45-18.21-31.8-30.17-41.45-48.53-9.74-18.54-7.07-30.44-6.92-49.95.02-1.9-.12-2.76-1.75-3.91-15.37,9.48-31.67,17.38-47.08,26.8-28.87,17.65-53.14,37.86-84.58,51.86-40.88,18.19-119.5,48.69-143.41-8.18-25.05-59.58,28.13-120.6,86.07-139.06,15.44-4.92,31.74-9.78,40.08,8.27,7.15,15.47,8.91,39.52-3.52,52.2-2.82,2.87-43.81,38.36-55.38,43.55-14.74,6.62-37.98,4.49-41.61-14.32-2.72-3.96-9.7,7.64-10.76,9.69-2.71,5.26-7,17.05-4.65,22.6.68,1.6,10.76,9.9,12.5,10.23,8.39,1.62,30.24-.3,39.75-1.13,77.12-6.72,145.07-46.37,215.43-74.49,5.51-25.7,15.86-51.64,40.88-63.74,10.2-4.94,15.09-4.24,25.93-.85,11.36,3.55,24.69,12.42,24.78,25.39-32.14,14.71-71.17,44.72-66.47,84.58,4.06,34.44,56.8,49.49,54.48,91.18-1.85,33.29-60.41,69.39-91.23,68.45-26.72-.82-40.16-33.16-34.21-56.35,1.45-5.66,4.7-8.06,10.58-8.17ZM524.3,372.81c.15-.52-.27-1.05-.81-1.03-16.98.69-30.17,8.38-42.69,19.26-11.44,9.94-25.25,23.85-29.99,38.36-.07.2.05.43.26.48,4.48.9,34.32-14.21,39.05-17,15.4-9.09,29.06-22.5,34.17-40.08Z"/>
      <path class="cls-1" d="M802.91,515.65c-.39,1.02.7,1.99,1.68,1.5,19.85-9.89,37.55-28.29,52.53-44.16,14.76-15.63,27.59-33.11,42.03-48.94,2.8-3.07,21.68-22.6,23.37-23.34,2.89-1.28,14.22,2.66,17.27,4.33,13.32,7.28,14.11,21.82,13.36,35.52-1.8,33.06-11.32,69.26-13.62,102.4-.68,9.81.47,20.25-.02,30.13-14.28.18-20.64-9.8-23.55-22.5-6.86-29.97.34-62.2.82-92.38-.76-.88-6.95,4.23-7.97,5.1-27.99,23.7-48.03,62.41-83.34,78.13-13.13,5.85-24.35,8.92-37.44.67-5.6-3.53-13.55-21.87-13.37-28.68,1.08-40.51,36.33-91.35,63.1-120.08,4.2-4.51,19.38-20.94,23.41-23.21,12.3-6.92,41.67,2.65,44.17,18.17.32,1.97.5,8.29-.44,9.66-2.83,4.11-6.99-2.26-9.11-2.31-4.12-.11-21.69,14.11-25.63,17.6-30.57,26.98-52.96,64.41-67.25,102.41Z"/>
    </g>
  </g>
</svg>